<svg width="25" height="26" viewBox="0 0 25 26" fill="none" xmlns="http://www.w3.org/2000/svg">
<g clip-path="url(#clip0_397_430)">
<path d="M10.5109 18.7823L10.5094 18.7777L10.2125 18.6808C8.80056 18.1817 7.5618 17.2874 6.64375 16.1042C5.90138 15.1483 5.39129 14.0329 5.1537 12.8461C4.91611 11.6592 4.95753 10.4334 5.27469 9.26536C5.59184 8.09729 6.17606 7.01888 6.98127 6.1152C7.78647 5.21152 8.79063 4.50729 9.91454 4.05805C11.0385 3.60881 12.2514 3.42686 13.4576 3.52654C14.6639 3.62622 15.8305 4.00482 16.8654 4.63246C17.9003 5.26009 18.7753 6.11961 19.4212 7.14321C20.0671 8.16681 20.4664 9.32649 20.5875 10.5308C20.6297 10.9605 20.275 11.3105 19.8438 11.3105C19.4125 11.3105 19.0672 10.9589 19.0156 10.5308C18.8762 9.42584 18.444 8.37822 17.7638 7.49633C17.0837 6.61444 16.1802 5.93032 15.1469 5.51476C14.1136 5.09919 12.9881 4.96727 11.8867 5.13266C10.7853 5.29804 9.74817 5.75472 8.88251 6.45543C8.01685 7.15615 7.35416 8.07545 6.96299 9.11821C6.57183 10.161 6.4664 11.2893 6.65763 12.3865C6.84886 13.4837 7.32978 14.5098 8.05065 15.3588C8.77152 16.2077 9.70614 16.8486 10.7578 17.2152C11.0231 16.7313 11.4506 16.3566 11.965 16.157C12.4794 15.9573 13.0477 15.9456 13.5699 16.1238C14.0921 16.302 14.5347 16.6588 14.8198 17.1312C15.1048 17.6037 15.214 18.1616 15.1281 18.7066C15.0423 19.2517 14.7669 19.749 14.3504 20.111C13.9339 20.4729 13.4031 20.6763 12.8514 20.6854C12.2996 20.6944 11.7624 20.5085 11.3343 20.1604C10.9062 19.8123 10.6146 19.3243 10.5109 18.7823ZM9.27188 19.9933C7.74157 19.3685 6.40366 18.3503 5.39375 17.0417C5.13706 17.4267 5.00005 17.879 5 18.3417V19.123C5 22.2027 7.90625 25.373 12.8125 25.373C17.7188 25.373 20.625 22.2027 20.625 19.123V18.3417C20.625 17.7201 20.3781 17.124 19.9385 16.6844C19.499 16.2449 18.9029 15.998 18.2812 15.998H15.9375C16.2652 16.4356 16.4974 16.9372 16.619 17.4703C16.7407 18.0034 16.749 18.556 16.6436 19.0925C16.5382 19.6291 16.3213 20.1375 16.0069 20.5848C15.6926 21.0322 15.2879 21.4087 14.8189 21.6898C14.3499 21.9709 13.8272 22.1504 13.2844 22.2167C12.7417 22.283 12.1911 22.2346 11.6682 22.0747C11.1454 21.9148 10.6619 21.6469 10.2491 21.2884C9.83632 20.9298 9.50339 20.4886 9.27188 19.9933ZM17.5 11.3105C17.5 9.88235 16.8609 8.60266 15.8531 7.74329C15.3611 7.32649 14.7883 7.0157 14.1706 6.83037C13.553 6.64503 12.9037 6.58914 12.2634 6.66617C11.6232 6.74321 11.0057 6.95153 10.4497 7.27809C9.89359 7.60466 9.41089 8.04244 9.03174 8.56407C8.65259 9.08571 8.38514 9.67996 8.24613 10.3097C8.10713 10.9394 8.09954 11.591 8.22386 12.2238C8.34818 12.8565 8.60172 13.4568 8.96863 13.9872C9.33555 14.5175 9.80793 14.9664 10.3562 15.3058C11.051 14.7425 11.9181 14.4348 12.8125 14.4339C13.7065 14.4339 14.5735 14.7405 15.2687 15.3027C15.9506 14.8832 16.5137 14.296 16.9043 13.5971C17.2949 12.8983 17.5 12.1111 17.5 11.3105Z" fill="#FFFFFF"/>
</g>
<defs>
<clipPath id="clip0_397_430">
<rect width="25" height="25" fill="white" transform="translate(0 0.5)"/>
</clipPath>
</defs>
</svg>
