<svg width="25" height="26" viewBox="0 0 25 26" fill="none" xmlns="http://www.w3.org/2000/svg">
<g clip-path="url(#clip0_397_717)">
<path d="M24.3254 11.3738C24.3249 11.3732 24.3243 11.3727 24.3237 11.3721L14.1257 1.17444C13.691 0.739563 13.1131 0.5 12.4984 0.5C11.8836 0.5 11.3057 0.739372 10.8708 1.17425L0.678141 11.3667C0.674708 11.3702 0.671275 11.3738 0.667842 11.3772C-0.224797 12.275 -0.223271 13.7317 0.672229 14.6272C1.08135 15.0365 1.62171 15.2736 2.19944 15.2984C2.2229 15.3006 2.24655 15.3018 2.2704 15.3018H2.67685V22.8066C2.67685 24.2917 3.88516 25.5 5.3706 25.5H9.36039C9.76475 25.5 10.0928 25.1721 10.0928 24.7676V18.8838C10.0928 18.2061 10.644 17.6549 11.3217 17.6549H13.675C14.3527 17.6549 14.9039 18.2061 14.9039 18.8838V24.7676C14.9039 25.1721 15.2318 25.5 15.6363 25.5H19.6261C21.1116 25.5 22.3199 24.2917 22.3199 22.8066V15.3018H22.6968C23.3113 15.3018 23.8892 15.0624 24.3243 14.6275C25.2208 13.7305 25.2211 12.2714 24.3254 11.3738Z" fill="#FFFFFF"/>
</g>
<defs>
<clipPath id="clip0_397_717">
<rect width="25" height="25" fill="white" transform="translate(0 0.5)"/>
</clipPath>
</defs>
</svg>
