<svg width="25" height="26" viewBox="0 0 25 26" fill="none" xmlns="http://www.w3.org/2000/svg">
<g clip-path="url(#clip0_397_721)">
<path fill-rule="evenodd" clip-rule="evenodd" d="M12.5 2.58331C18.2532 2.58331 22.9167 7.24685 22.9167 13C22.9167 18.7531 18.2532 23.4166 12.5 23.4166C6.74692 23.4166 2.08337 18.7531 2.08337 13C2.08337 7.24685 6.74692 2.58331 12.5 2.58331ZM4.38025 14.8854C4.74479 16.4504 5.55347 17.8768 6.70911 18.9933C7.86476 20.1097 9.31822 20.8688 10.8948 21.1791C10.6938 18.4448 9.79483 16.8041 8.65941 15.8969C7.57191 15.0271 6.09692 14.6906 4.38025 14.8844V14.8854ZM16.3407 15.8958C15.2052 16.8052 14.3063 18.4448 14.1052 21.1791C15.682 20.8687 17.1355 20.1095 18.2912 18.9928C19.4469 17.8762 20.2555 16.4495 20.6198 14.8844C18.9032 14.6906 17.4282 15.0271 16.3407 15.8969V15.8958ZM12.5 4.66665C10.5586 4.66691 8.67804 5.34479 7.18294 6.58336C5.68784 7.82192 4.67192 9.54348 4.31046 11.451L4.26567 11.7094L6.56775 11.2489C7.174 11.1281 7.75004 10.8083 8.39379 10.3739L8.89066 10.0281C9.72087 9.43852 10.9511 8.83331 12.5 8.83331C13.9459 8.83331 15.1136 9.3604 15.9375 9.9104L16.6063 10.3739C17.1688 10.7541 17.6813 11.0458 18.2063 11.1948L18.4323 11.2489L20.7344 11.7094C20.4263 9.74678 19.4274 7.95877 17.9177 6.66752C16.4079 5.37627 14.4867 4.66669 12.5 4.66665Z" fill="#FFFFFF"/>
</g>
<defs>
<clipPath id="clip0_397_721">
<rect width="25" height="25" fill="white" transform="translate(0 0.5)"/>
</clipPath>
</defs>
</svg>
