<svg width="25" height="26" viewBox="0 0 25 26" fill="none" xmlns="http://www.w3.org/2000/svg">
<path fill-rule="evenodd" clip-rule="evenodd" d="M12.5 2.58331C18.2531 2.58331 22.9167 7.24685 22.9167 13C22.9167 18.7531 18.2531 23.4166 12.5 23.4166C6.74688 23.4166 2.08334 18.7531 2.08334 13C2.08334 7.24685 6.74688 2.58331 12.5 2.58331ZM4.38022 14.8854C4.74476 16.4504 5.55343 17.8768 6.70908 18.9933C7.86473 20.1097 9.31819 20.8688 10.8948 21.1791C10.6938 18.4448 9.7948 16.8041 8.65938 15.8969C7.57188 15.0271 6.09688 14.6906 4.38022 14.8844V14.8854ZM16.3406 15.8958C15.2052 16.8052 14.3063 18.4448 14.1052 21.1791C15.682 20.8687 17.1355 20.1095 18.2912 18.9928C19.4468 17.8762 20.2554 16.4495 20.6198 14.8844C18.9031 14.6906 17.4281 15.0271 16.3406 15.8969V15.8958ZM12.5 4.66665C10.5585 4.66691 8.67801 5.34479 7.18291 6.58336C5.68781 7.82192 4.67189 9.54348 4.31043 11.451L4.26563 11.7094L6.56772 11.2489C7.17397 11.1281 7.75001 10.8083 8.39376 10.3739L8.89063 10.0281C9.72084 9.43852 10.9511 8.83331 12.5 8.83331C13.9458 8.83331 15.1136 9.3604 15.9375 9.9104L16.6063 10.3739C17.1688 10.7541 17.6813 11.0458 18.2063 11.1948L18.4323 11.2489L20.7344 11.7094C20.4263 9.74678 19.4274 7.95877 17.9176 6.66752C16.4079 5.37627 14.4866 4.66669 12.5 4.66665Z" fill="#B1B1B1"/>
</svg>
