<svg width="25" height="26" viewBox="0 0 25 26" fill="none" xmlns="http://www.w3.org/2000/svg">
<g clip-path="url(#clip0_397_67)">
<path d="M4.16668 4.66666C3.61414 4.66666 3.08424 4.88615 2.69354 5.27685C2.30284 5.66755 2.08334 6.19746 2.08334 6.74999V10.9167C2.63588 10.9167 3.16578 11.1362 3.55648 11.5269C3.94718 11.9176 4.16668 12.4475 4.16668 13C4.16668 13.5525 3.94718 14.0824 3.55648 14.4731C3.16578 14.8638 2.63588 15.0833 2.08334 15.0833V19.25C2.08334 19.8025 2.30284 20.3324 2.69354 20.7231C3.08424 21.1138 3.61414 21.3333 4.16668 21.3333H20.8333C21.3859 21.3333 21.9158 21.1138 22.3065 20.7231C22.6972 20.3324 22.9167 19.8025 22.9167 19.25V15.0833C22.3641 15.0833 21.8342 14.8638 21.4435 14.4731C21.0528 14.0824 20.8333 13.5525 20.8333 13C20.8333 12.4475 21.0528 11.9176 21.4435 11.5269C21.8342 11.1362 22.3641 10.9167 22.9167 10.9167V6.74999C22.9167 6.19746 22.6972 5.66755 22.3065 5.27685C21.9158 4.88615 21.3859 4.66666 20.8333 4.66666H4.16668ZM16.1458 7.79166L17.7083 9.35416L8.85418 18.2083L7.29168 16.6458L16.1458 7.79166ZM9.17709 7.83332C10.1979 7.83332 11.0208 8.65624 11.0208 9.67707C11.0208 10.1661 10.8266 10.635 10.4808 10.9808C10.1351 11.3266 9.66609 11.5208 9.17709 11.5208C8.15626 11.5208 7.33334 10.6979 7.33334 9.67707C7.33334 9.18808 7.5276 8.71912 7.87337 8.37335C8.21914 8.02758 8.6881 7.83332 9.17709 7.83332ZM15.8229 14.4792C16.8438 14.4792 17.6667 15.3021 17.6667 16.3229C17.6667 16.8119 17.4724 17.2809 17.1267 17.6266C16.7809 17.9724 16.3119 18.1667 15.8229 18.1667C14.8021 18.1667 13.9792 17.3437 13.9792 16.3229C13.9792 15.8339 14.1734 15.3649 14.5192 15.0192C14.865 14.6734 15.3339 14.4792 15.8229 14.4792Z" fill="#B1B1B1"/>
</g>
<defs>
<clipPath id="clip0_397_67">
<rect width="25" height="25" fill="white" transform="translate(0 0.5)"/>
</clipPath>
</defs>
</svg>
