<svg width="28" height="28" viewBox="0 0 28 28" fill="none" xmlns="http://www.w3.org/2000/svg">
<path d="M27.1545 20.8969C26.9167 22.7039 26.0293 24.3625 24.658 25.563C23.2867 26.7635 21.5253 27.4238 19.7027 27.4205C9.11457 27.4205 0.500012 18.8059 0.500012 8.21776C0.496745 6.39523 1.15702 4.63382 2.35752 3.26252C3.55802 1.89122 5.21664 1.00381 7.02361 0.766038C7.48054 0.710244 7.94327 0.803725 8.34271 1.03253C8.74215 1.26133 9.05688 1.61318 9.23992 2.03555L12.0563 8.32311V8.33911C12.1965 8.66243 12.2543 9.01542 12.2248 9.36656C12.1952 9.7177 12.0792 10.0561 11.887 10.3514C11.863 10.3874 11.8376 10.4207 11.811 10.4541L9.03456 13.7452C10.0334 15.7748 12.1563 17.8791 14.2126 18.8806L17.4584 16.1189C17.4903 16.0921 17.5237 16.0671 17.5584 16.0442C17.8535 15.8474 18.1931 15.7272 18.5463 15.6946C18.8995 15.662 19.2553 15.718 19.5814 15.8575L19.5987 15.8655L25.881 18.6806C26.3041 18.863 26.6568 19.1774 26.8863 19.5769C27.1159 19.9764 27.21 20.4395 27.1545 20.8969Z" fill="#58BC6B"/>
</svg>
