<svg width="27" height="28" viewBox="0 0 27 28" fill="none" xmlns="http://www.w3.org/2000/svg">
<path d="M13.5 0.666656C15.2681 0.666656 16.9638 1.36904 18.2141 2.61928C19.4643 3.86952 20.1667 5.56521 20.1667 7.33332C20.1667 9.10143 19.4643 10.7971 18.2141 12.0474C16.9638 13.2976 15.2681 14 13.5 14C11.7319 14 10.0362 13.2976 8.78597 12.0474C7.53573 10.7971 6.83335 9.10143 6.83335 7.33332C6.83335 5.56521 7.53573 3.86952 8.78597 2.61928C10.0362 1.36904 11.7319 0.666656 13.5 0.666656ZM13.5 17.3333C20.8667 17.3333 26.8334 20.3167 26.8334 24V27.3333H0.166687V24C0.166687 20.3167 6.13335 17.3333 13.5 17.3333Z" fill="#58BC6B"/>
</svg>
